<svg xmlns="http://www.w3.org/2000/svg" xmlns:xlink="http://www.w3.org/1999/xlink" fill="none" version="1.1" width="12" height="12" viewBox="0 0 12 12"><defs><clipPath id="master_svg0_475_78665"><rect x="0" y="0" width="12" height="12" rx="0"/></clipPath></defs><g clip-path="url(#master_svg0_475_78665)"><g><path d="M6.4331325,5.9028825L10.3758825,1.9605105C10.5223125,1.8140855,10.5223125,1.5766845,10.3758825,1.4302605C10.2294625,1.2838359,9.9920625,1.2838358,9.8456325,1.4302605L5.9028825,5.3726325L1.9605105,1.4302605C1.8141065,1.2837138,1.5766054999999999,1.2836558,1.4301305,1.4301305C1.2836558,1.5766065,1.2837138,1.8141065,1.4302605,1.9605105L5.3726325,5.9028825L1.4302605,9.8452625C1.2838356,9.9916825,1.2838357,10.2290825,1.4302605,10.3755125C1.5766855,10.5219325,1.8140865,10.5219325,1.9605105,10.3755125L5.9028825,6.4331325L9.8452625,10.3758825C9.9916525,10.5225025,10.2292125,10.5225925,10.3757125,10.3760925C10.5222225,10.2295825,10.5221325,9.9920225,10.3755125,9.8456325L6.4331325,5.9028825Z" fill="#BBBBBB" fill-opacity="1" style="mix-blend-mode:passthrough"/></g></g></svg>