<svg xmlns="http://www.w3.org/2000/svg" xmlns:xlink="http://www.w3.org/1999/xlink" fill="none" version="1.1" width="16" height="16" viewBox="0 0 16 16"><defs><clipPath id="master_svg0_475_78645"><rect x="0" y="0" width="16" height="16" rx="0"/></clipPath></defs><g clip-path="url(#master_svg0_475_78645)"><g><path d="M8,1C4.7875,1,2.1875,3.6,2.1875,6.8125C2.1875,8.4,2.825,9.85,3.8625,10.9L8,15L12.125,10.8875C13.1625,9.8375,13.8,8.4,13.8,6.8C13.8125,3.6,11.2125,1,8,1ZM10,6.175C9.925,7.15,9.15,7.925,8.175,8C7,8.1,6.0125,7.1625,6.0125,6.0125C6.0125,4.9125,6.9125,4.0125,8.0125,4.0125C9.1625,4.0125,10.1,5,10,6.175Z" fill="#DC2626" fill-opacity="1" style="mix-blend-mode:passthrough"/></g></g></svg>