<svg xmlns="http://www.w3.org/2000/svg" xmlns:xlink="http://www.w3.org/1999/xlink" fill="none" version="1.1" width="56" height="56" viewBox="0 0 56 56"><g><g><rect x="0" y="0" width="56" height="56" rx="16" fill="#31B38C" fill-opacity="1"/></g><g><g><g></g><g><g><path d="M41.97535181274414,26.820482824325563L41.68035181274414,28.94788282432556C40.57425181274414,36.92098282432556,33.46085181274414,43.681282824325564,25.546151812744142,43.904982824325565C17.63139181274414,44.12858282432556,11.550311812744141,37.48768282432556,12.69081981274414,29.27598282432556L14.90793181274414,13.304942824325561C15.138981812744142,11.659612824325562,16.64327181274414,10.322482824325562,18.27046181274414,10.322482824325562C19.89765181274414,10.322482824325562,21.03325181274414,11.659612824325562,20.807121812744143,13.304942824325561L18.62442181274414,29.00758282432556C17.90668181274414,34.16228282432556,21.50518181274414,38.32778282432556,26.64735181274414,37.91518282432556C31.101151812744142,37.562282824325564,35.10285181274414,33.81928282432556,35.73205181274414,29.27598282432556L36.07615181274414,26.81548282432556C36.30725181274414,25.17018282432556,37.81155181274414,23.832982824325562,39.43865181274414,23.832982824325562C41.06585181274414,23.832982824325562,42.20145181274414,25.17018282432556,41.97535181274414,26.81548282432556L41.97535181274414,26.820482824325563Z" fill="#FFFFFF" fill-opacity="1"/></g><g><path d="M43.25350018798828,18.06677029319763C43.022450187988284,19.712090293197633,41.51816018798828,21.04922029319763,39.89097018798828,21.04922029319763C38.26377518798828,21.04922029319763,37.128183187988284,19.712090293197633,37.35431478798828,18.06677029319763C37.58536718798828,16.42144029319763,39.08966018798828,15.084310293197632,40.71685018798828,15.084310293197632C42.344040187988284,15.084310293197632,43.47963018798828,16.42144029319763,43.25350018798828,18.06677029319763Z" fill="#FFFFFF" fill-opacity="1"/></g><g><path d="M32.67927765655517,30.493800856552124C32.448177656555174,32.139120856552125,30.943887656555177,33.47625085655213,29.316697656555178,33.47625085655213L23.909117656555175,33.47625085655213C22.281922656555174,33.47625085655213,21.146327656555176,32.139120856552125,21.372462256555174,30.493800856552124C21.603514656555177,28.848470856552122,23.107807656555174,27.511340856552124,24.734997656555176,27.511340856552124L30.142577656555176,27.511340856552124C31.769777656555178,27.511340856552124,32.905377656555174,28.848470856552122,32.67927765655517,30.493800856552124Z" fill="#FFFFFF" fill-opacity="1"/></g><g><path d="M33.66736912536621,22.401351668319702C33.43626912536621,24.046671668319703,31.93197912536621,25.383801668319702,30.304789125366213,25.383801668319702L24.89720912536621,25.383801668319702C23.27001412536621,25.383801668319702,22.13441912536621,24.046671668319703,22.36055372536621,22.401351668319702C22.591606125366212,20.7560216683197,24.09589912536621,19.418891668319702,25.72308912536621,19.418891668319702L31.13066912536621,19.418891668319702C32.75786912536621,19.418891668319702,33.89346912536621,20.7560216683197,33.66736912536621,22.401351668319702Z" fill="#FFFFFF" fill-opacity="1"/></g></g></g></g></g></svg>