<svg xmlns="http://www.w3.org/2000/svg" xmlns:xlink="http://www.w3.org/1999/xlink" fill="none" version="1.1" width="1200" height="136" viewBox="0 0 1200 136"><defs><filter id="master_svg0_522_76634" filterUnits="objectBoundingBox" color-interpolation-filters="sRGB" x="0" y="0" width="1" height="1"><feFlood flood-opacity="0" result="BackgroundImageFix"/><feBlend mode="normal" in="SourceGraphic" in2="BackgroundImageFix" result="shape"/><feColorMatrix in="SourceAlpha" type="matrix" result="hardAlpha" values="0 0 0 0 0 0 0 0 0 0 0 0 0 0 0 0 0 0 127 0"/><feOffset dy="4" dx="0"/><feGaussianBlur stdDeviation="5"/><feComposite in2="hardAlpha" operator="arithmetic" k2="-1" k3="1"/><feColorMatrix type="matrix" values="0 0 0 0 1 0 0 0 0 1 0 0 0 0 1 0 0 0 0.5 0"/><feBlend mode="normal" in2="shape" result="effect1_innerShadow"/></filter><linearGradient x1="0.5" y1="0" x2="0.5" y2="1" id="master_svg1_467_80713"><stop offset="0%" stop-color="#869EFB" stop-opacity="1"/><stop offset="100%" stop-color="#F05AAF" stop-opacity="1"/></linearGradient></defs><g filter="url(#master_svg0_522_76634)"><path d="M0,128C0,132.418,3.58172,136,8,136L1192,136C1196.42,136,1200,132.418,1200,128L1200,38C1200,33.5817,1196.42,30,1192,30L851.241,30C846.562,30,842.032,28.3597,838.437,25.3644L813.563,4.63557C809.968,1.64032,805.438,0,800.759,0L8,0C3.58172,0,0,3.58172,0,8L0,128Z" fill="url(#master_svg1_467_80713)" fill-opacity="1"/></g></svg>