<svg xmlns="http://www.w3.org/2000/svg" xmlns:xlink="http://www.w3.org/1999/xlink" fill="none" version="1.1" width="94" height="30" viewBox="0 0 94 30"><defs><clipPath id="master_svg0_467_77043"><rect x="0" y="0" width="94" height="30" rx="0"/></clipPath></defs><g clip-path="url(#master_svg0_467_77043)"><g><g><path d="M5.78922,25.40492873535156C4.75781,25.40492873535156,3.80126,25.179928735351563,2.91956,24.729928735351564C2.03787,24.27992873535156,1.33086,23.628528735351562,0.798513,22.775928735351563C0.266171,21.923298735351562,0,20.896988735351563,0,19.696988735351564C0,18.62329873535156,0.187152,17.636458735351564,0.561455,16.73645873535156C0.935758,15.836458735351563,1.46394,15.054878735351561,2.146,14.391718735351562C2.82807,13.728568735351562,3.61826,13.211459735351562,4.51659,12.840407735351562C5.41492,12.469354735351562,6.37979,12.283828735351562,7.4112,12.283828735351562C8.52579,12.283828735351562,9.48235,12.481196735351563,10.2809,12.875933735351563C11.0794,13.270670735351562,11.6741,13.882508735351562,12.065,14.711458735351563C12.456,15.540408735351562,12.5932,16.61014873535156,12.4768,17.920668735351562C12.3936,19.420668735351562,12.0692,20.735148735351565,11.5036,21.86409873535156C10.938,22.99302873535156,10.1769,23.865428735351564,9.22033,24.481228735351564C8.26378,25.097028735351564,7.12008,25.40492873535156,5.78922,25.40492873535156ZM6.98699,22.349628735351562C7.75223,22.349628735351562,8.43014,22.17198873535156,9.02071,21.816718735351564C9.61127,21.461458735351563,10.0771,20.971988735351562,10.4181,20.348298735351563C10.7591,19.724618735351562,10.9297,18.99435873535156,10.9297,18.157508735351563C10.9297,17.32066873535156,10.6593,16.602248735351562,10.1187,16.096988735351562C9.578,15.591718735351563,8.82524,15.339088735351563,7.86036,15.339088735351563C7.11176,15.339088735351563,6.43801,15.516718735351562,5.83913,15.871988735351563C5.24024,16.227248735351562,4.77028,16.716718735351563,4.42925,17.340408735351563C4.08822,17.964088735351563,3.9177,18.694358735351564,3.9177,19.531198735351563C3.9177,20.36803873535156,4.18803,21.086458735351563,4.72869,21.591718735351563C5.26935,22.096988735351562,6.02212,22.349628735351562,6.98699,22.349628735351562ZM9.65702,25.21142873535156L10.181,22.677228735351562L11.0544,18.887778735351564L11.5784,15.098298735351563L12.1274,12.469353735351563L16.0202,12.469353735351563L13.3501,25.21142873535156L9.65702,25.21142873535156Z" fill="#FFFFFF" fill-opacity="1" style="mix-blend-mode:passthrough"/></g><g><path d="M24.029896953125,25.40492873535156C22.649136953125,25.40492873535156,21.447206953125,25.168028735351562,20.424106953125,24.69432873535156C19.401016953125,24.22062873535156,18.606656953125,23.55752873535156,18.041047953125,22.70492873535156C17.475433953125,21.852248735351562,17.192626953125,20.849618735351562,17.192626953125,19.696988735351564C17.192626953125,18.275938735351563,17.541976953125,17.008828735351564,18.240676953125,15.895668735351563C18.939376953125,14.782508735351563,19.904246953125,13.902248735351563,21.135286953125,13.254880735351563C22.366326953125,12.607512735351563,23.780366953125,12.283828735351562,25.377386953125,12.283828735351562C26.808056953125,12.283828735351562,28.047426953124997,12.564091735351562,29.095426953125,13.124618735351563C30.143526953125,13.685148735351563,30.917026953125,14.478568735351562,31.416126953125,15.504878735351562L28.122326953125,17.068038735351564C27.839426953125,16.468038735351563,27.444326953125,16.029878735351563,26.936986953125,15.753568735351562C26.429596953125,15.477248735351562,25.826556953125,15.339088735351563,25.127856953125,15.339088735351563C24.362616953125,15.339088735351563,23.680546953125,15.516728735351563,23.081666953125,15.871988735351563C22.482776953125,16.227248735351562,22.008666953125,16.716718735351563,21.659316953125,17.340408735351563C21.309966953125,17.964088735351563,21.135286953125,18.686458735351565,21.135286953125,19.507518735351564C21.135286953125,20.37593873535156,21.405626953125,21.06672873535156,21.946276953125,21.579878735351564C22.486936953125,22.093038735351563,23.256346953125,22.349628735351562,24.254486953125,22.349628735351562C24.936546953125,22.349628735351562,25.560386953125,22.211458735351563,26.125996953125,21.93514873535156C26.691606953125,21.658828735351562,27.165726953125002,21.228568735351562,27.548326953125,20.644358735351563L30.418026953125,22.349628735351562C29.785826953125,23.312728735351563,28.908326953125,24.062728735351563,27.785426953125,24.599628735351562C26.662506953125,25.136428735351565,25.410666953125002,25.40492873535156,24.029896953125,25.40492873535156Z" fill="#FFFFFF" fill-opacity="1" style="mix-blend-mode:passthrough"/></g></g><g><g><path d="M66.60080768066406,25.405827905273437C65.50284768066406,25.405827905273437,64.55461768066407,25.18082790527344,63.756107680664066,24.730827905273436C62.95758768066406,24.280827905273437,62.391976680664065,23.621627905273435,62.059261680664065,22.753127905273438C61.726546180664066,21.88475790527344,61.69327408066406,20.81106790527344,61.95944468066406,19.532127905273438L63.431697680664065,12.474229411073438L67.32445768066407,12.474229411073438L65.90210768066406,19.295277905273437C65.70247768066406,20.226857905273437,65.78149768066406,20.94528790527344,66.13916768066406,21.45054790527344C66.49683768066406,21.95580790527344,67.13314768066407,22.208437905273435,68.04810768066406,22.208437905273435C69.01297768066406,22.208437905273435,69.82396768066405,21.940017905273436,70.48108768066406,21.403177905273438C71.13818768066406,20.86633790527344,71.57487768066406,20.045277905273437,71.79109768066407,18.940017905273436L73.16359768066407,12.474227905273438L77.05629768066406,12.474227905273438L74.38629768066406,25.216327905273438L70.69318768066407,25.216327905273438L71.44178768066406,21.61633790527344L71.99079768066406,22.705827905273438C71.35861768066407,23.637427905273437,70.56841768066406,24.320327905273437,69.62018768066406,24.754527905273438C68.67195768066406,25.18872790527344,67.66549768066406,25.405827905273437,66.60080768066406,25.405827905273437Z" fill="#FFFFFF" fill-opacity="1" style="mix-blend-mode:passthrough"/></g><g><path d="M78.92813736816406,30.000621655273438C78.24607736816407,30.000621655273438,77.56817736816406,29.89792165527344,76.89442736816406,29.692721655273438C76.22068536816407,29.487421655273437,75.68418036816406,29.219021655273437,75.28492736816406,28.88742165527344L77.08158736816407,26.234821655273436C77.36438736816406,26.471621655273438,77.68462736816406,26.661121655273437,78.04229736816406,26.80322165527344C78.39996736816406,26.94532165527344,78.79505736816407,27.016421655273437,79.22758736816407,27.016421655273437C79.72665736816407,27.016421655273437,80.16334736816407,26.897921655273436,80.53764736816406,26.661121655273437C80.91194736816406,26.42422165527344,81.28209736816406,26.021621655273435,81.64807736816407,25.45322165527344L82.72108736816406,23.842721655273436L83.07043736816406,23.46372165527344L90.15722736816406,12.474271375273437L94.00012736816406,12.474271375273437L85.06671736816406,26.06902165527344C84.40128736816406,27.06372165527344,83.76497736816407,27.849321655273435,83.15777736816406,28.42562165527344C82.55056736816407,29.00192165527344,81.91009736816406,29.408521655273436,81.23635736816406,29.645321655273438C80.56260736816407,29.882121655273437,79.79320736816406,30.000621655273438,78.92813736816406,30.000621655273438ZM81.89761736816406,25.709821655273437L78.67860736816407,12.470321655273438L82.57135736816406,12.470321655273438L85.01680736816407,23.128221655273435L81.89761736816406,25.709821655273437Z" fill="#FFFFFF" fill-opacity="1" style="mix-blend-mode:passthrough"/></g></g><g><g><path d="M58.82398585205078,13.092194317626953L58.574485852050785,14.781694317626954C57.63878585205078,21.113294317626952,51.62078585205078,26.481694317626953,44.92488585205078,26.65929431762695C38.22904585205078,26.836994317626953,33.08445185205078,21.56329431762695,34.04932285205078,15.042194317626953L35.924995852050785,2.359314317626953C36.120465852050785,1.052734317626953,37.393095852050784,-0.009105682373046875,38.769705852050784,-0.009105682373046875C40.14630585205078,-0.009105682373046875,41.10701585205078,1.052734317626953,40.91570585205078,2.359314317626953L39.06914585205078,14.829094317626954C38.46194585205078,18.922494317626953,41.506275852050784,22.230394317626953,45.85648585205078,21.902694317626953C49.62448585205078,21.622494317626952,53.009885852050786,18.65009431762695,53.54218585205078,15.042194317626953L53.83328585205078,13.088294317626954C54.02878585205078,11.781694317626954,55.301385852050785,10.719794317626953,56.67798585205078,10.719794317626953C58.05458585205078,10.719794317626953,59.015385852050784,11.781694317626954,58.82398585205078,13.088294317626954L58.82398585205078,13.092194317626953Z" fill="#FFFFFF" fill-opacity="1"/></g><g><path d="M59.90518538330078,6.1415408801269535C59.70971538330078,7.448120880126953,58.43708538330078,8.509960880126954,57.06047538330078,8.509960880126954C55.683876383300785,8.509960880126954,54.72316538330078,7.448120880126953,54.91447258330078,6.1415408801269535C55.10994238330078,4.834960880126953,56.38257538330078,3.773120880126953,57.75917538330078,3.773120880126953C59.13577538330078,3.773120880126953,60.09648538330078,4.834960880126953,59.90518538330078,6.1415408801269535Z" fill="#FFFFFF" fill-opacity="1"/></g><g><path d="M50.95924343017578,16.010681505126954C50.76377343017578,17.317261505126954,49.49114343017578,18.379101505126954,48.11454343017578,18.379101505126954L43.53972343017578,18.379101505126954C42.163124430175785,18.379101505126954,41.20241043017578,17.317261505126954,41.39372063017578,16.010681505126954C41.58919043017578,14.704101505126953,42.86182343017578,13.642261505126953,44.23842343017578,13.642261505126953L48.81324343017578,13.642261505126953C50.189843430175785,13.642261505126953,51.15055343017578,14.704101505126953,50.95924343017578,16.010681505126954Z" fill="#FFFFFF" fill-opacity="1"/></g><g><path d="M51.79493678955078,9.583923692626954C51.59946678955078,10.890503692626954,50.32683678955078,11.952343692626954,48.95023678955078,11.952343692626954L44.37541678955078,11.952343692626954C42.998817789550785,11.952343692626954,42.03810378955078,10.890503692626954,42.22941398955078,9.583923692626954C42.42488378955078,8.277343692626953,43.69751678955078,7.215503692626953,45.07411678955078,7.215503692626953L49.64893678955078,7.215503692626953C51.025536789550785,7.215503692626953,51.98624678955078,8.277343692626953,51.79493678955078,9.583923692626954Z" fill="#FFFFFF" fill-opacity="1"/></g></g></g></svg>